<?xml version="1.0" encoding="utf-8"?>
<!-- Generator: Adobe Illustrator 19.0.0, SVG Export Plug-In . SVG Version: 6.00 Build 0)  -->
<svg version="1.1" id="Layer_1" xmlns="http://www.w3.org/2000/svg" xmlns:xlink="http://www.w3.org/1999/xlink" x="0px" y="0px"
	 viewBox="0 0 45.4 76.9" style="enable-background:new 0 0 45.4 76.9;" xml:space="preserve">
<path id="XMLID_693_" d="M11.8,41.3c-0.5,7.5,6.1,10.1,6.1,10.1l1.3-6.8c0,0,0.3-0.2-0.4-2.7C18,39.4,16,37.4,16,37.4s0.9,0.1,2,1.1
	c1.1,1,1.9,3.5,1.9,3.5s1.6-4.7,2.8-8c1.3-3.3,3.9-6.6,3.9-6.6s-0.9,1.9-1.6,3.4c-0.7,1.5-2.3,5.8-2.3,5.8s1.4-1.2,3.4-1.9
	c2-0.7,3.7-0.2,3.7-0.2s-1.9,0.5-3.6,1.3c-1.8,0.8-4,2.7-4,2.7s-0.3,1.2-1.2,5.3c-0.9,3.8-0.4,8-0.4,8s11.1-0.4,13-10.8
	c1.5-8-5.7-15.7-5.7-15.7S12.4,31.7,11.8,41.3z"/>
</svg>
